<svg width="32" height="32" viewBox="0 0 32 32" fill="#888888" xmlns="http://www.w3.org/2000/svg">
<rect width="32" height="32" rx="2" />
<path d="M28 16.0735C28 9.44649 22.627 4.07349 16 4.07349C9.373 4.07349 4 9.44649 4 16.0735C4 22.0635 8.388 27.0275 14.125 27.9275V19.5425H11.078V16.0725H14.125V13.4305C14.125 10.4235 15.917 8.76149 18.658 8.76149C19.97 8.76149 21.344 8.99649 21.344 8.99649V11.9495H19.83C18.339 11.9495 17.874 12.8745 17.874 13.8235V16.0735H21.202L20.67 19.5435H17.874V27.9285C23.612 27.0275 28 22.0625 28 16.0735Z" fill="white"/>
</svg>
