<svg width="32" height="32" viewBox="0 0 32 32" fill="#888888" xmlns="http://www.w3.org/2000/svg">
<rect width="32" height="32" rx="2"/>
<path d="M15.9995 4.20338C12.7949 4.20338 12.3948 4.21813 11.1365 4.27416C9.88026 4.33314 9.02504 4.53073 8.27303 4.82268C7.49744 5.12348 6.83882 5.5275 6.18315 6.18317C5.52748 6.83884 5.12248 7.49647 4.82267 8.27305C4.53071 9.02505 4.33214 9.88027 4.27415 11.1366C4.21517 12.3948 4.20337 12.7949 4.20337 15.9995C4.20337 19.2041 4.21811 19.6042 4.27415 20.8625C4.33313 22.1178 4.53071 22.974 4.82267 23.726C5.12347 24.5006 5.52748 25.1602 6.18315 25.8159C6.83882 26.4705 7.49646 26.8765 8.27303 27.1764C9.02602 27.4673 9.88124 27.6669 11.1365 27.7249C12.3948 27.7838 12.7949 27.7956 15.9995 27.7956C19.2041 27.7956 19.6042 27.7809 20.8625 27.7249C22.1178 27.6659 22.974 27.4673 23.726 27.1764C24.5006 26.8755 25.1602 26.4705 25.8158 25.8159C26.4705 25.1602 26.8765 24.5035 27.1763 23.726C27.4673 22.974 27.6669 22.1178 27.7249 20.8625C27.7838 19.6042 27.7956 19.2041 27.7956 15.9995C27.7956 12.7949 27.7809 12.3948 27.7249 11.1366C27.6659 9.88126 27.4673 9.02407 27.1763 8.27305C26.8755 7.49745 26.4705 6.83884 25.8158 6.18317C25.1602 5.5275 24.5035 5.1225 23.726 4.82268C22.974 4.53073 22.1178 4.33216 20.8625 4.27416C19.6042 4.21518 19.2041 4.20338 15.9995 4.20338ZM15.9995 6.32669C19.1481 6.32669 19.5236 6.34242 20.7671 6.39648C21.9172 6.45055 22.5414 6.64125 22.9563 6.80443C23.5087 7.01774 23.9 7.27333 24.3148 7.68521C24.7267 8.09807 24.9823 8.49029 25.1956 9.04275C25.3568 9.45758 25.5495 10.0818 25.6016 11.2319C25.6576 12.4764 25.6704 12.8499 25.6704 15.9995C25.6704 19.1491 25.6556 19.5236 25.5976 20.7671C25.5377 21.9172 25.346 22.5415 25.1838 22.9563C24.9636 23.5087 24.7129 23.9 24.3 24.3148C23.8882 24.7267 23.49 24.9823 22.9435 25.1956C22.5306 25.3568 21.8966 25.5495 20.7465 25.6016C19.4941 25.6576 19.1255 25.6704 15.97 25.6704C12.8136 25.6704 12.4449 25.6556 11.1936 25.5976C10.0425 25.5377 9.40841 25.346 8.99555 25.1838C8.43621 24.9636 8.05186 24.7129 7.63998 24.3001C7.22613 23.8882 6.9617 23.4901 6.75527 22.9435C6.59307 22.5306 6.40236 21.8966 6.3424 20.7465C6.29817 19.5079 6.28244 19.1255 6.28244 15.9848C6.28244 12.8431 6.29817 12.4597 6.3424 11.2064C6.40236 10.0562 6.59307 9.42317 6.75527 9.01031C6.9617 8.44999 7.22613 8.06662 7.63998 7.65277C8.05186 7.24089 8.43621 6.97548 8.99555 6.77003C9.40841 6.60685 10.0287 6.41516 11.1788 6.35618C12.4322 6.31194 12.8008 6.2972 15.9553 6.2972L15.9995 6.32669ZM15.9995 9.9422C12.6523 9.9422 9.94219 12.6553 9.94219 15.9995C9.94219 19.3467 12.6553 22.0568 15.9995 22.0568C19.3467 22.0568 22.0568 19.3437 22.0568 15.9995C22.0568 12.6524 19.3437 9.9422 15.9995 9.9422ZM15.9995 19.9316C13.827 19.9316 12.0675 18.172 12.0675 15.9995C12.0675 13.8271 13.827 12.0675 15.9995 12.0675C18.172 12.0675 19.9315 13.8271 19.9315 15.9995C19.9315 18.172 18.172 19.9316 15.9995 19.9316ZM23.7122 9.70333C23.7122 10.4848 23.0772 11.1189 22.2967 11.1189C21.5152 11.1189 20.8811 10.4838 20.8811 9.70333C20.8811 8.92282 21.5162 8.28878 22.2967 8.28878C23.0762 8.2878 23.7122 8.92282 23.7122 9.70333Z" fill="white"/>
</svg>
