<svg width="32" height="32" viewBox="0 0 32 32" fill="#888888" xmlns="http://www.w3.org/2000/svg">
<rect width="32" height="32" rx="2"/>
<path d="M27.5091 8.84615C26.644 9.22706 25.7274 9.4785 24.789 9.59236C25.777 8.99852 26.5168 8.06723 26.8717 6.97049C25.956 7.50488 24.9411 7.89388 23.8608 8.11052C23.1481 7.34835 22.2036 6.84284 21.1741 6.67249C20.1446 6.50214 19.0876 6.67648 18.1674 7.16845C17.2471 7.66041 16.515 8.44247 16.0848 9.39317C15.6546 10.3439 15.5503 11.41 15.7882 12.4261C11.8501 12.2402 8.36164 10.3482 6.02477 7.49044C5.59995 8.2124 5.37837 9.03585 5.38351 9.87352C5.38351 11.52 6.2212 12.9672 7.49025 13.8174C6.73812 13.7935 6.0026 13.5901 5.34499 13.2243V13.282C5.34456 14.3762 5.72269 15.4369 6.41522 16.284C7.10774 17.1312 8.07202 17.7126 9.14444 17.9298C8.44954 18.116 7.72173 18.1439 7.01459 18.0116C7.31897 18.9533 7.90973 19.7765 8.70443 20.3663C9.49913 20.9561 10.4581 21.2831 11.4476 21.3017C9.77177 22.6169 7.70254 23.3308 5.57223 23.3285C5.19671 23.3285 4.82216 23.3064 4.44568 23.264C6.61761 24.6547 9.14301 25.3929 11.722 25.391C20.4388 25.391 25.2002 18.1734 25.2002 11.9254C25.2002 11.7232 25.2002 11.521 25.1857 11.3188C26.1158 10.6495 26.9181 9.81846 27.5544 8.8654L27.5091 8.84615Z" fill="white"/>
</svg>
