<svg width="32" height="32" viewBox="0 0 32 32" fill="#888888" xmlns="http://www.w3.org/2000/svg">
    <rect width="32" height="32" rx="2" />
    <path d="M18.3733 21.1567C19.5819 20.8818 20.7365 20.4041 21.7859 19.7443C22.5765 19.2154 22.7888 18.1461 22.2599 17.3555C21.7518 16.5953 20.7394 16.3659 19.9516 16.8313C17.5344 18.3433 14.4631 18.3433 12.0459 16.8313C11.243 16.3251 10.1832 16.5659 9.67603 17.3669C9.67603 17.3688 9.67603 17.3707 9.67414 17.3716C9.16794 18.1745 9.40872 19.2353 10.2116 19.7415L10.2135 19.7434C11.261 20.4022 12.4146 20.8809 13.6223 21.1539L10.3377 24.4385C9.6675 25.0973 9.65518 26.1732 10.3112 26.8434L10.3396 26.8718C10.6657 27.2074 11.1074 27.3742 11.5473 27.3742C11.988 27.3742 12.4288 27.2074 12.7559 26.8718L15.9988 23.6451L19.2255 26.8737C19.908 27.5325 20.9982 27.5145 21.6579 26.8311C22.3006 26.1647 22.3006 25.1077 21.6579 24.4423L18.3733 21.1567V21.1567ZM15.9988 16.3678C19.2407 16.364 21.8665 13.7382 21.8712 10.4972C21.8712 7.26001 19.236 4.62476 15.9988 4.62476C12.7616 4.62476 10.1263 7.26001 10.1263 10.4991C10.131 13.741 12.7578 16.3668 15.9988 16.3687V16.3678ZM15.9988 8.06671C17.341 8.0686 18.4283 9.15683 18.4293 10.4982C18.4293 11.8404 17.341 12.9277 15.9988 12.9296C14.6574 12.9277 13.5701 11.8414 13.5673 10.4991C13.5692 9.15588 14.6574 8.0686 15.9988 8.06576V8.06671Z" fill="white"/>
</svg>