<svg width="32" height="32" viewBox="0 0 32 32" fill="#888888" xmlns="http://www.w3.org/2000/svg">
    <rect width="32" height="32" rx="2" />
    <path d="M5.2658 15.6133L18.2634 10.2581C19.5464 9.70026 23.8977 7.91524 23.8977 7.91524C23.8977 7.91524 25.9059 7.13436 25.7385 9.03084C25.6827 9.81172 25.2367 12.5452 24.7902 15.5015L23.3957 24.2593C23.3957 24.2593 23.284 25.5423 22.3341 25.7654C21.3842 25.9885 19.8239 24.9845 19.5451 24.7613C19.322 24.594 15.3613 22.0838 13.9109 20.8565C13.5203 20.522 13.0742 19.8524 13.9667 19.0715C15.9749 17.2307 18.3737 14.9435 19.8239 13.4932C20.4933 12.8238 21.1627 11.2619 18.3736 13.1587L10.5081 18.4581C10.5081 18.4581 9.61543 19.0159 7.94204 18.5139C6.26865 18.0119 4.31619 17.3425 4.31619 17.3425C4.31619 17.3425 2.97735 16.5058 5.26451 15.6134L5.2658 15.6133Z" fill="white"/>
</svg>