<svg width="32" height="32" viewBox="0 0 32 32" fill="#888888" xmlns="http://www.w3.org/2000/svg">
    <rect width="32" height="32" rx="2" />
    <path d="M19.3959 4.93454H12.6023C6.40246 4.93454 4.93457 6.40243 4.93457 12.6022V19.3958C4.93457 25.5957 6.40246 27.0635 12.6023 27.0635H19.3959C25.5957 27.0635 27.0636 25.5957 27.0636 19.3958V12.6022C27.0636 6.40243 25.58 4.93454 19.3959 4.93454ZM22.8001 20.7227H21.192C20.5835 20.7227 20.3954 20.2386 19.3018 19.1303C18.3494 18.2083 17.928 18.0838 17.6938 18.0838C17.3655 18.0838 17.2715 18.1778 17.2715 18.6306V20.0828C17.2715 20.4737 17.147 20.7079 16.1162 20.7079C14.4141 20.7079 12.5239 19.6771 11.1971 17.7555C9.19809 14.9452 8.6504 12.8364 8.6504 12.3994C8.6504 12.1652 8.74445 11.9467 9.19717 11.9467H10.8052C11.2109 11.9467 11.3677 12.1338 11.5244 12.5709C12.3201 14.8668 13.6479 16.8814 14.1946 16.8814C14.3975 16.8814 14.4915 16.7874 14.4915 16.2729V13.8977C14.4288 12.8042 13.8507 12.711 13.8507 12.321C13.8507 12.1329 14.0075 11.9457 14.2564 11.9457H16.7865C17.1304 11.9457 17.2549 12.1329 17.2549 12.5386V15.7409C17.2549 16.0839 17.4116 16.2093 17.5048 16.2093C17.7076 16.2093 17.88 16.0839 18.2544 15.7095C19.4106 14.4131 20.2377 12.4141 20.2377 12.4141C20.3474 12.1799 20.5346 11.9614 20.9412 11.9614H22.5493C23.0333 11.9614 23.1431 12.2104 23.0333 12.5543C22.8305 13.492 20.8628 16.271 20.8628 16.271C20.6913 16.5523 20.6286 16.6767 20.8628 16.9902C21.0343 17.2244 21.5968 17.7085 21.9721 18.1456C22.659 18.9265 23.1892 19.5821 23.3302 20.0357C23.487 20.4875 23.2519 20.7217 22.7991 20.7217L22.8001 20.7227Z" fill="white"/>
</svg>
