<svg width="32" height="32" viewBox="0 0 32 32" fill="#888888" xmlns="http://www.w3.org/2000/svg">
    <rect width="32" height="32" rx="2"/>
    <path d="M26.8794 10.5155C26.7478 10.0438 26.4968 9.61414 26.1506 9.26791C25.8043 8.92169 25.3746 8.67065 24.903 8.53907C23.1338 8.06508 16.0097 8.06508 16.0097 8.06508C16.0097 8.06508 8.90553 8.05562 7.11741 8.53907C6.64585 8.67088 6.21627 8.92212 5.87021 9.26851C5.52415 9.6149 5.27332 10.0447 5.14196 10.5164C4.8063 12.328 4.64064 14.167 4.64716 16.0094C4.64188 17.8452 4.80753 19.6775 5.14196 21.4826C5.27346 21.9541 5.52436 22.3837 5.87041 22.7299C6.21646 23.0761 6.64596 23.3272 7.11741 23.459C8.88566 23.9339 16.0107 23.9339 16.0107 23.9339C16.0107 23.9339 23.114 23.9339 24.903 23.459C25.3748 23.3273 25.8045 23.0761 26.1508 22.7297C26.497 22.3833 26.748 21.9534 26.8794 21.4816C27.2065 19.6762 27.3649 17.8442 27.3525 16.0094C27.3663 14.1671 27.2079 12.3274 26.8794 10.5145V10.5155ZM13.7372 19.4087V12.6007L19.6655 16.0104L13.7372 19.4087Z" fill="white"/>
</svg>